<svg width="35" height="34" viewBox="0 0 35 34" fill="none" xmlns="http://www.w3.org/2000/svg">
<g clip-path="url(#clip0_305_2343)">
<path d="M12.4102 6.38647C13.9494 6.38657 15.4537 6.83072 16.7441 7.66187L16.999 7.83276C18.2601 8.7152 19.2385 9.94136 19.8193 11.3621L19.9297 11.6492C20.4571 13.0954 20.5556 14.6607 20.2168 16.158L20.1436 16.4558C19.7201 18.0421 18.8189 19.4604 17.5625 20.5173L17.1396 20.8728L17.6436 21.1003C19.7131 22.0369 21.4937 23.5111 22.8008 25.3689L22.8057 25.3757L22.8115 25.3826C22.8876 25.48 22.9479 25.5886 22.9912 25.7039L23.0293 25.822C23.0713 25.9815 23.0799 26.1481 23.0557 26.3113C23.0375 26.4336 23.0009 26.552 22.9473 26.6628L22.8877 26.7712C22.8227 26.8767 22.7426 26.9716 22.6494 27.0525L22.5527 27.1287C22.4179 27.2236 22.2648 27.2898 22.1035 27.324C21.9825 27.3496 21.858 27.3572 21.7354 27.3455L21.6133 27.3269C21.4514 27.2947 21.2972 27.2299 21.1611 27.1365H21.1621C21.0261 27.0431 20.9095 26.9234 20.8213 26.7839L20.8174 26.7771L20.8125 26.7703L20.6309 26.5203C19.7683 25.3671 18.6732 24.408 17.416 23.7058L17.1445 23.5593C15.6822 22.7993 14.0582 22.4022 12.4102 22.4021C10.8649 22.4021 9.34071 22.7517 7.95117 23.4216L7.6748 23.5593C6.30361 24.272 5.11249 25.2849 4.18848 26.5203L4.00684 26.7703L4.00586 26.7712C3.92232 26.8911 3.81815 26.9948 3.69824 27.0769L3.57324 27.1511C3.44367 27.2185 3.30343 27.2619 3.15918 27.2791L3.01367 27.2878H3.01172C2.82409 27.2885 2.63984 27.2442 2.47363 27.1609L2.31445 27.0652L2.3125 27.0642L2.21777 26.99C2.00629 26.8069 1.86371 26.5551 1.81543 26.2771C1.76718 25.9991 1.81669 25.7141 1.9541 25.4705L2.01855 25.3689C3.32562 23.5111 5.10627 22.0369 7.17578 21.1003L7.67969 20.8728L7.25684 20.5173C6.07898 19.5265 5.21326 18.2184 4.76074 16.7517L4.67578 16.4558C4.27889 14.9688 4.31996 13.4012 4.79004 11.9402L4.88965 11.6492C5.41703 10.2031 6.34932 8.94203 7.57227 8.0144L7.82031 7.83276C9.16554 6.89149 10.7683 6.38647 12.4102 6.38647ZM23.0459 6.39624H23.0479C24.5879 6.39184 26.0942 6.83254 27.3867 7.66187L27.6426 7.83374C28.9057 8.71478 29.8852 9.94072 30.4668 11.3621L30.5781 11.6492C31.106 13.096 31.2038 14.6623 30.8633 16.1599L30.79 16.4578C30.3645 18.0445 29.4599 19.4619 28.2002 20.5164L27.7754 20.8718L28.2803 21.1003C30.2206 21.9784 31.9072 23.3288 33.1875 25.0251L33.4375 25.3689L33.4395 25.3708C33.5092 25.4684 33.5636 25.5759 33.6016 25.6892L33.6338 25.8035C33.6605 25.9203 33.6698 26.0408 33.6611 26.1599L33.6465 26.2781C33.626 26.3961 33.5881 26.5105 33.5342 26.6169L33.4746 26.7205C33.4102 26.8214 33.331 26.9117 33.2402 26.989L33.1455 27.0623L33.1416 27.0652C32.9383 27.2105 32.6942 27.2877 32.4443 27.2869C32.2492 27.2856 32.0569 27.2383 31.8838 27.1482C31.754 27.0806 31.6378 26.9905 31.54 26.8826L31.4482 26.7683C30.4992 25.4222 29.241 24.3233 27.7793 23.5642C26.4087 22.8525 24.8965 22.4588 23.3555 22.4109L23.0469 22.406L22.9258 22.4001C22.6869 22.3764 22.4601 22.2827 22.2744 22.1306L22.1855 22.0496C21.9571 21.8211 21.8282 21.5113 21.8281 21.1882C21.8281 20.9054 21.9267 20.6326 22.1045 20.4158L22.1855 20.3269C22.414 20.0986 22.7239 19.9705 23.0469 19.9705C24.4314 19.9704 25.7627 19.4541 26.7842 18.5291L26.9844 18.3386C28.0285 17.2944 28.6152 15.8778 28.6152 14.4011C28.6152 13.0167 28.0996 11.6852 27.1748 10.6638L26.9844 10.4636C26.0053 9.4845 24.6987 8.9078 23.3223 8.8396L23.0469 8.83276C22.6652 8.83206 22.2849 8.87135 21.9121 8.94995L21.541 9.04175L21.4199 9.07202C21.3014 9.09487 21.18 9.09957 21.0596 9.08667C20.9389 9.07375 20.8211 9.0434 20.71 8.99585L20.6016 8.94312C20.4954 8.88467 20.3985 8.81102 20.3145 8.72437L20.2354 8.63354C20.1599 8.5385 20.0988 8.43264 20.0547 8.32007L20.0166 8.20581C19.9837 8.08905 19.9689 7.96823 19.9717 7.84741L19.9805 7.72729C19.9953 7.607 20.0279 7.48991 20.0771 7.37964L20.1318 7.27222C20.1919 7.167 20.2665 7.07073 20.3545 6.98804L20.4473 6.90991C20.5433 6.83614 20.6497 6.77737 20.7627 6.73511L20.8779 6.698L20.8838 6.69702C21.4989 6.52189 22.1329 6.4224 22.7715 6.40112L23.0459 6.39624ZM13.4961 8.94019C12.4834 8.73876 11.4361 8.82281 10.4707 9.1814L10.2783 9.25659C9.32452 9.65172 8.50085 10.304 7.89746 11.1384L7.7793 11.3074C7.16748 12.223 6.84089 13.2999 6.84082 14.4011C6.84082 15.7857 7.35629 17.1179 8.28125 18.1394L8.47168 18.3386C9.51599 19.3829 10.9333 19.9705 12.4102 19.9705C13.4425 19.9704 14.4534 19.6833 15.3301 19.1433L15.5029 19.032C16.3614 18.4584 17.0426 17.6576 17.4717 16.7214L17.5547 16.532C17.9496 15.5783 18.0705 14.5349 17.9072 13.5183L17.8711 13.3152C17.6696 12.3024 17.1911 11.3668 16.4902 10.6121L16.3477 10.4636C15.6175 9.73348 14.6992 9.22227 13.6973 8.98413L13.4961 8.94019Z" fill="#4CAF4F" stroke="#4CAF4F" stroke-width="0.696069"/>
</g>
<defs>
<clipPath id="clip0_305_2343">
<rect width="33.4113" height="33.4113" fill="white" transform="translate(0.924561 0.306152)"/>
</clipPath>
</defs>
</svg>
