<svg width="14" height="13" viewBox="0 0 14 13" fill="none" xmlns="http://www.w3.org/2000/svg">
<g clip-path="url(#clip0_369_877)">
<path fill-rule="evenodd" clip-rule="evenodd" d="M12.4608 0.766201C12.6026 0.90801 12.6506 1.11852 12.5844 1.30781L8.93002 11.7489C8.8593 11.9509 8.67243 12.0893 8.45855 12.098C8.24468 12.1067 8.04715 11.984 7.96021 11.7884L5.95355 7.27343L1.43857 5.26677C1.24297 5.17984 1.12025 4.98231 1.12898 4.76843C1.1377 4.55456 1.2761 4.36768 1.47813 4.29697L11.9192 0.642605C12.1085 0.576353 12.319 0.624392 12.4608 0.766201ZM6.97174 6.99354L8.37953 10.1611L10.8432 3.12211L6.97174 6.99354ZM10.1049 2.38382L3.06592 4.84745L6.23345 6.25524L10.1049 2.38382Z" fill="white"/>
</g>
<defs>
<clipPath id="clip0_369_877">
<rect width="12.5293" height="12.5293" fill="white" transform="translate(0.606506 0.0913086)"/>
</clipPath>
</defs>
</svg>
